Coordinates
version=1
nRows=9
nColumns=63
inDegrees=yes

Units are S.I. units (second, meters, Newtons, ...)
If the header above contains a line with 'inDegrees', this indicates whether rotational values are in degrees (yes) or radians (no).

endheader
time	pelvis_tilt	pelvis_list	pelvis_rotation	pelvis_tx	pelvis_ty	pelvis_tz	hip_flexion_r	hip_adduction_r	hip_rotation_r	knee_angle_r	knee_angle_r_beta	ankle_angle_r	subtalar_angle_r	mtp_angle_r	hip_flexion_l	hip_adduction_l	hip_rotation_l	knee_angle_l	knee_angle_l_beta	ankle_angle_l	subtalar_angle_l	mtp_angle_l	L5_S1_Flex_Ext	L5_S1_Lat_Bending	L5_S1_axial_rotation	L4_L5_Flex_Ext	L4_L5_Lat_Bending	L4_L5_axial_rotation	L3_L4_Flex_Ext	L3_L4_Lat_Bending	L3_L4_axial_rotation	L2_L3_Flex_Ext	L2_L3_Lat_Bending	L2_L3_axial_rotation	L1_L2_Flex_Ext	L1_L2_Lat_Bending	L1_L2_axial_rotation	L1_T12_Flex_Ext	L1_T12_Lat_Bending	L1_T12_axial_rotation	Abs_r3	Abs_r2	Abs_r1	Abs_t1	Abs_t2	neck_flexion	neck_bending	neck_rotation	arm_flex_r	arm_add_r	arm_rot_r	elbow_flex_r	pro_sup_r	wrist_flex_r	wrist_dev_r	arm_flex_l	arm_add_l	arm_rot_l	elbow_flex_l	pro_sup_l	wrist_flex_l	wrist_dev_l
3.859649	-6.489528	1.968689	101.062841	0.240819	0.732708	0.721471	-2.005055	-7.561492	-12.202073	13.217159	0.230683	20.535626	0.272776	0.000000	-0.619435	4.024023	-1.924090	11.447306	0.199793	18.114149	6.565292	0.000000	-0.005660	-1.072500	-0.752529	-0.010510	-1.426425	-0.799562	-0.009298	-2.607676	-0.799562	-0.006468	-2.607676	-0.658463	-0.005255	-2.187041	-0.611430	-0.003234	-1.661302	-0.564397	-0.040426	-12.132332	-4.185339	0.000000	0.000000	22.850815	-5.346807	1.642271	19.701628	-22.399705	48.498136	149.575867	72.333480	21.492882	20.955516	-4.965659	-31.650337	39.526946	125.979185	89.156211	34.596388	27.063945
3.877193	-6.382085	2.100414	102.119689	0.239049	0.732654	0.720728	-2.442063	-7.398619	-13.252136	13.183541	0.230096	20.703483	0.329296	0.000000	-0.728624	3.897322	-1.061769	11.596788	0.202402	18.217247	6.490784	0.000000	-0.007184	-1.048802	-0.933620	-0.013342	-1.394907	-0.991971	-0.011803	-2.550058	-0.991971	-0.008211	-2.550058	-0.816917	-0.006671	-2.138718	-0.758566	-0.004105	-1.624595	-0.700215	-0.051317	-11.864263	-5.192514	0.000000	0.000000	22.853674	-5.344362	2.119877	20.364189	-22.442234	49.149495	149.576985	71.562628	21.270634	21.186755	-4.961097	-31.802165	39.641774	126.056579	89.168467	33.576974	26.608537
3.894737	-6.286135	2.201939	103.215821	0.237227	0.732586	0.720027	-2.857367	-7.254978	-14.429275	13.137553	0.229294	20.895112	0.508761	0.000000	-0.790232	3.788140	-0.130925	11.758473	0.205224	18.390133	6.442182	0.000000	-0.007658	-1.026595	-1.123021	-0.014221	-1.365371	-1.193210	-0.012581	-2.496062	-1.193210	-0.008752	-2.496062	-0.982644	-0.007111	-2.093432	-0.912455	-0.004376	-1.590195	-0.842266	-0.054698	-11.613045	-6.245908	0.000000	0.000000	22.886152	-5.394498	2.591763	21.008750	-22.486671	49.734799	149.574485	70.746230	21.036661	21.385996	-5.062506	-31.951839	39.727043	126.098756	89.177839	32.192810	25.837943
3.912281	-6.196584	2.273611	104.292365	0.235445	0.732504	0.719409	-3.226300	-7.122768	-15.621939	13.090311	0.228469	21.083007	0.735359	0.000000	-0.803257	3.685141	0.757968	11.926797	0.208162	18.637775	6.498899	0.000000	-0.008058	-1.005302	-1.310523	-0.014964	-1.337052	-1.392431	-0.013238	-2.444291	-1.392431	-0.009209	-2.444291	-1.146708	-0.007482	-2.050012	-1.064800	-0.004604	-1.557213	-0.982892	-0.057556	-11.372176	-7.288735	0.000000	0.000000	22.974165	-5.502484	3.013378	21.636687	-22.534228	50.273716	149.571034	69.826425	20.764506	21.594122	-5.265066	-32.085779	39.764325	126.093942	89.178519	30.448573	24.757054
3.929825	-6.107854	2.315152	105.297562	0.233773	0.732416	0.718860	-3.537989	-6.994668	-16.766473	13.035374	0.227510	21.253351	0.997132	0.000000	-0.762962	3.577946	1.528899	12.109448	0.211350	18.976628	6.711517	0.000000	-0.006759	-0.983539	-1.488521	-0.012552	-1.308106	-1.581554	-0.011105	-2.391376	-1.581554	-0.007725	-2.391376	-1.302456	-0.006277	-2.005632	-1.209424	-0.003862	-1.523501	-1.116391	-0.048280	-11.125985	-8.278709	0.000000	0.000000	23.124055	-5.683379	3.389422	22.235358	-22.563537	50.755666	149.571409	68.889541	20.528090	21.908964	-5.574780	-32.218547	39.764642	126.042330	89.174349	28.207434	23.369896
3.947368	-6.019945	2.342896	106.219620	0.232215	0.732352	0.718408	-3.803588	-6.872981	-17.834842	12.982995	0.226596	21.400243	1.276720	0.000000	-0.699728	3.478687	2.284456	12.281108	0.214346	19.367580	6.952235	0.000000	-0.006458	-0.960925	-1.653942	-0.011993	-1.278030	-1.757313	-0.010609	-2.336393	-1.757313	-0.007381	-2.336393	-1.447199	-0.005997	-1.959518	-1.343827	-0.003690	-1.488473	-1.240456	-0.046127	-10.870176	-9.198727	0.000000	0.000000	23.353351	-5.880797	3.749121	22.816063	-22.605193	51.195182	149.571279	68.192833	20.369728	22.128895	-5.948801	-32.315783	39.661930	125.948976	89.158825	25.829183	21.951118
3.964912	-5.937322	2.362811	107.041577	0.230793	0.732323	0.718057	-4.026365	-6.761037	-18.813030	12.935135	0.225761	21.530132	1.566686	0.000000	-0.621524	3.394942	3.043781	12.443661	0.217183	19.785271	7.149231	0.000000	-0.006531	-0.937408	-1.801025	-0.012129	-1.246753	-1.913589	-0.010730	-2.279215	-1.913589	-0.007464	-2.279215	-1.575897	-0.006065	-1.911563	-1.463333	-0.003732	-1.452046	-1.350768	-0.046650	-10.604152	-10.016759	0.000000	0.000000	23.641405	-6.090063	4.073544	23.380042	-22.659256	51.589186	149.572697	67.824094	20.297512	22.277103	-6.343775	-32.388328	39.470488	125.798951	89.135113	23.391403	20.536335
3.982456	-5.857592	2.388359	107.723037	0.229556	0.732349	0.717807	-4.208736	-6.657064	-19.654709	12.897236	0.225099	21.635249	1.868637	0.000000	-0.549778	3.317486	3.730636	12.588768	0.219715	20.208079	7.350534	0.000000	-0.007678	-0.912635	-1.916180	-0.014260	-1.213804	-2.035941	-0.012615	-2.218980	-2.035941	-0.008776	-2.218980	-1.676657	-0.007130	-1.861045	-1.556896	-0.004387	-1.413671	-1.437135	-0.054847	-10.323908	-10.657216	0.000000	0.000000	23.971158	-6.299926	4.324474	23.895779	-22.750209	51.890526	149.577308	67.925875	20.340659	22.273363	-6.670568	-32.427217	39.212804	125.564733	89.107245	21.122255	19.182397
4.000000	-5.775186	2.423145	108.295295	0.228454	0.732434	0.717649	-4.372526	-6.556797	-20.433193	12.851573	0.224302	21.724752	2.232034	0.000000	-0.486518	3.248038	4.455937	12.723342	0.222064	20.599044	7.411207	0.000000	-0.009685	-0.885762	-2.006266	-0.017986	-1.178063	-2.131657	-0.015911	-2.153641	-2.131657	-0.011069	-2.153641	-1.755483	-0.008993	-1.806245	-1.630091	-0.005534	-1.372045	-1.504699	-0.069177	-10.019912	-11.158248	0.000000	0.000000	24.333620	-6.472533	4.540996	24.359008	-22.881270	52.073714	149.585027	68.412599	20.470394	22.205211	-6.917579	-32.430526	38.869602	125.256263	89.079907	19.067422	17.947890
